<?xml version="1.0" encoding="iso-8859-1"?>
<!-- Generator: Adobe Illustrator 19.0.0, SVG Export Plug-In . SVG Version: 6.00 Build 0)  -->
<svg version="1.1" id="Layer_1" xmlns="http://www.w3.org/2000/svg" xmlns:xlink="http://www.w3.org/1999/xlink" x="0px" y="0px"
	 viewBox="0 0 512 512" style="enable-background:new 0 0 512 512;" xml:space="preserve">
<path style="fill:#FFF5C8;" d="M192.231,397.938C112.957,371.346,55.774,296.53,55.609,208.283
	C55.4,97.61,144.95,7.723,255.624,7.515C366.296,7.306,456.183,96.856,456.391,207.53c0.166,88.247-56.735,163.278-135.909,190.168
	l0.192,8.602H192.424L192.231,397.938z"/>
<circle style="fill:#FFFAE1;" cx="256.001" cy="206.905" r="167.327"/>
<path style="fill:#959CB3;" d="M224.435,472.485c0.034,17.707,14.415,32.034,32.123,32.001
	c17.708-0.033,32.035-14.414,32.003-32.121L224.435,472.485z"/>
<path style="fill:#C7CFE2;" d="M288.56,472.363c17.634-0.033,32.036-14.489,32.003-32.123l-0.075-40.078l-16.032,0.03l-32.062,0.06
	l-80.157,0.15l0.075,40.078c0.033,17.634,14.488,32.036,32.123,32.003c0,0,0,0.001,0,0.002l64.125-0.12
	C288.56,472.365,288.56,472.364,288.56,472.363z"/>
<path style="fill:#707487;" d="M249.597,472.485c0-0.001,0-0.001,0-0.001c-0.566,0-1.128-0.014-1.688-0.043l-23.474,0.044
	c0.034,17.707,14.415,32.034,32.123,32.001c4.446-0.008,8.678-0.922,12.523-2.565C257.648,497.039,249.622,485.706,249.597,472.485z
	"/>
<g>
	<path style="fill:#AFB9D2;" d="M217.473,440.481l-0.075-40.078l80.157-0.15l22.932-0.043v-0.047l-16.032,0.03l-32.062,0.06
		l-80.157,0.15l0.075,40.078c0.033,17.634,14.488,32.036,32.123,32.003c0,0,0,0.001,0,0.002l23.474-0.044
		C231.049,471.587,217.506,457.549,217.473,440.481z"/>
	<path style="fill:#AFB9D2;" d="M249.597,472.483c0,0,0,0.001,0,0.002l38.962-0.073c0-0.016,0.001-0.031,0.001-0.047l-40.651,0.076
		C248.468,472.47,249.031,472.485,249.597,472.483z"/>
</g>
<path style="fill:#FFD782;" d="M255.984,199.891c-21.726,0.041-40.102-12.774-40.131-27.98c-0.029-15.206,18.3-28.089,40.025-28.13
	c18.066-0.034,34.447,8.957,38.948,21.379c0.783,2.151,1.178,4.374,1.182,6.601c0.017,8.853,7.208,16.018,16.061,16.001
	s16.017-7.208,16.001-16.061c-0.011-5.946-1.055-11.818-3.101-17.466c-7.65-21.108-28.098-36.283-53.118-40.901l-0.003-1.645
	c-0.017-8.853-7.208-16.018-16.061-16.001s-16.018,7.208-16.001,16.061l0.003,1.548c-32.065,6.158-56.054,30.121-55.999,58.675
	c0.062,33.151,32.477,60.056,72.254,59.982c21.726-0.041,40.102,12.774,40.131,27.98c0.029,15.206-18.3,28.089-40.025,28.13
	c-21.727,0.041-40.102-12.774-40.131-27.98c-0.017-8.853-7.208-16.018-16.061-16.001s-16.017,7.208-16.001,16.061
	c0.054,28.554,24.132,52.427,56.22,58.464l0.003,1.548c0.017,8.853,7.208,16.018,16.061,16.001
	c8.853-0.017,16.018-7.208,16.001-16.061l-0.003-1.548c32.065-6.158,56.054-30.121,56-58.675
	C328.177,226.721,295.762,199.816,255.984,199.891z"/>
<path d="M256.152,192.376h-0.272c-17.299,0-32.492-9.57-32.513-20.478c-0.021-10.942,15.178-20.569,32.614-20.602
	c14.725,0,28.388,7.061,31.784,16.433c0.482,1.324,0.727,2.685,0.73,4.045c0.024,12.959,10.587,23.502,23.59,23.502
	c12.983-0.024,23.526-10.607,23.502-23.591c-0.013-6.81-1.207-13.543-3.551-20.012c-7.903-21.808-27.534-38.138-53.112-44.496
	c-2.125-10.814-11.69-19.004-23.15-19.004c-6.289,0.012-12.197,2.473-16.637,6.928c-3.345,3.359-5.554,7.546-6.435,12.097
	c-14.923,3.884-28.383,11.507-38.357,21.813c-11.683,12.07-18.099,27.331-18.07,42.976c0.07,37.211,35.78,67.484,79.604,67.484
	h0.269c17.299,0,32.492,9.57,32.513,20.478c0.021,10.942-15.178,20.569-32.613,20.602c-17.3,0.001-32.494-9.569-32.515-20.478
	c-0.024-12.96-10.587-23.503-23.59-23.503c-12.983,0.024-23.526,10.607-23.502,23.59c0.029,15.645,6.505,30.883,18.232,42.909
	c10.014,10.267,23.504,17.842,38.444,21.668c2.151,10.783,11.695,18.937,23.092,18.937c0.005,0,0.04,0,0.045,0
	c6.289-0.012,12.197-2.473,16.637-6.929c3.345-3.358,5.553-7.545,6.434-12.097c14.923-3.884,28.384-11.507,38.357-21.813
	c11.682-12.069,18.099-27.331,18.07-42.976C335.683,222.648,299.974,192.376,256.152,192.376z M270.821,311.168
	c-3.545,0.681-6.104,3.784-6.097,7.394l0.003,1.547c0.004,2.275-0.878,4.416-2.484,6.028c-1.606,1.612-3.742,2.502-6.017,2.506
	l-0.017,7.515v-7.516c-4.687,0-8.508-3.814-8.517-8.502l-0.003-1.548c-0.007-3.609-2.578-6.703-6.125-7.37
	c-28.981-5.452-50.049-26.941-50.095-51.092c-0.009-4.697,3.804-8.525,8.518-8.534c4.687,0,8.507,3.814,8.516,8.502
	c0.037,19.564,21.366,35.48,47.545,35.479h0.115c26.242-0.05,47.563-16.046,47.526-35.66c-0.036-19.563-21.363-35.479-47.541-35.479
	h-0.269c-35.553,0-64.52-23.543-64.574-52.483c-0.045-24.151,20.941-45.718,49.902-51.28c3.544-0.68,6.104-3.784,6.097-7.393
	l-0.003-1.548c-0.004-2.275,0.878-4.415,2.484-6.028c1.606-1.611,3.743-2.502,6.034-2.506c4.687,0,8.507,3.813,8.516,8.502
	l0.003,1.646c0.007,3.618,2.592,6.717,6.151,7.373c22.703,4.19,40.872,18.012,47.417,36.071c1.75,4.83,2.642,9.851,2.652,14.92
	c0.004,2.275-0.878,4.416-2.484,6.028c-1.606,1.612-3.742,2.502-6.034,2.506c-4.687,0-8.508-3.813-8.517-8.5
	c-0.005-3.108-0.556-6.189-1.632-9.147c-5.616-15.504-24.495-26.333-45.91-26.333h-0.117c-26.242,0.05-47.563,16.046-47.526,35.66
	c0.037,19.563,21.365,35.479,47.542,35.479h0.272c35.55,0,64.518,23.543,64.572,52.481
	C320.769,284.038,299.782,305.605,270.821,311.168z"/>
<path d="M463.906,207.516C463.691,93.002,370.473,0,256.006,0c-0.126,0-0.271,0-0.397,0C140.969,0.216,47.879,93.658,48.094,208.297
	c0.164,87.495,54.847,165.16,136.633,194.967l0.07,37.231c0.037,19.467,14.193,35.67,32.74,38.912
	c3.308,18.512,19.524,32.595,38.959,32.593c0.024,0,0.052,0,0.076,0c10.572-0.02,20.502-4.155,27.964-11.644
	c5.808-5.83,9.58-13.152,10.955-21.097c18.53-3.315,32.623-19.569,32.587-39.033l-0.07-37.231
	C409.68,372.879,464.07,295.01,463.906,207.516z M256.544,496.971c-0.016,0-0.031,0-0.047,0c-10.894,0-20.155-7.139-23.352-16.989
	l46.742-0.087c-1.169,3.674-3.199,7.044-5.999,9.854C269.26,494.394,263.1,496.958,256.544,496.971z M318.066,390.582
	c-1.256,0.427-2.324,1.155-3.153,2.075l-10.472,0.02c-4.15,0.008-7.509,3.379-7.501,7.53c0.008,4.145,3.371,7.5,7.515,7.5
	c0.005,0,0.01,0,0.015,0l8.518-0.016l0.061,32.563c0.025,13.536-10.966,24.569-24.502,24.595l-64.125,0.12c-0.015,0-0.031,0-0.047,0
	c-13.514,0-24.522-10.981-24.547-24.501l-0.061-32.564l72.642-0.137c4.15-0.008,7.509-3.379,7.501-7.529
	c-0.008-4.146-3.371-7.501-7.515-7.501c-0.005,0-0.01,0-0.015,0l-74.596,0.14c-0.834-0.917-1.904-1.641-3.162-2.064
	c-78.496-26.331-131.342-99.69-131.497-182.544c-0.2-106.352,86.161-193.039,192.514-193.24c0.123,0,0.244,0,0.368,0
	c106.183,0,192.672,86.286,192.871,192.514C449.032,290.398,396.463,363.955,318.066,390.582z"/>
<path d="M421.724,148.976c-8.713-24.504-23.108-47.206-41.626-65.652c-18.519-18.447-41.278-32.752-65.816-41.37
	c-3.916-1.377-8.205,0.684-9.581,4.6s0.684,8.205,4.6,9.581c45.405,15.946,82.139,52.537,98.262,97.878
	c1.094,3.078,3.99,4.999,7.08,4.999c0.836,0,1.685-0.14,2.518-0.437C421.071,157.183,423.114,152.886,421.724,148.976z"/>
<g>
</g>
<g>
</g>
<g>
</g>
<g>
</g>
<g>
</g>
<g>
</g>
<g>
</g>
<g>
</g>
<g>
</g>
<g>
</g>
<g>
</g>
<g>
</g>
<g>
</g>
<g>
</g>
<g>
</g>
</svg>
